<svg width="884" height="248" viewBox="0 0 884 248" fill="none" xmlns="http://www.w3.org/2000/svg">
<path d="M354.634 124.632C348.149 127.875 342.09 129.923 336.458 130.776C330.826 131.629 325.706 132.056 321.098 132.056C316.405 132.056 312.223 131.459 308.554 130.264C304.885 129.069 301.514 127.533 298.442 125.656C295.455 123.864 292.682 121.901 290.122 119.768C287.562 117.635 285.045 115.629 282.57 113.752C280.095 111.96 277.578 110.467 275.018 109.272C272.543 108.077 269.813 107.48 266.826 107.48C264.095 107.48 261.322 107.736 258.506 108.248C261.919 104.152 264.437 99.3307 266.058 93.784C267.679 88.152 268.49 82.264 268.49 76.12C268.49 74.328 268.405 72.4933 268.234 70.616C268.063 68.6533 267.722 66.776 267.21 64.984C266.783 63.1067 266.101 61.3573 265.162 59.736C264.309 58.0293 263.157 56.536 261.706 55.256C264.095 50.8187 265.717 46.7653 266.57 43.096C267.509 39.4267 267.978 35.6293 267.978 31.704C267.978 27.6933 267.722 24.6213 267.21 22.488C266.783 20.2693 266.058 18.52 265.034 17.24C264.01 15.96 262.687 14.8933 261.066 14.04C259.53 13.1013 257.61 11.864 255.306 10.328C256.927 10.4987 258.463 10.6267 259.914 10.712C261.45 10.7973 262.943 10.84 264.394 10.84C267.807 10.84 270.965 10.6693 273.866 10.328C276.767 9.98667 279.498 9.60267 282.058 9.176C284.618 8.74934 287.093 8.36534 289.482 8.024C291.871 7.68267 294.303 7.512 296.778 7.512C298.485 7.512 300.319 7.64 302.282 7.896C300.149 7.896 298.101 8.70667 296.138 10.328C294.261 11.9493 292.554 14.04 291.018 16.6C289.567 19.0747 288.373 21.848 287.434 24.92C286.581 27.9067 286.154 30.8507 286.154 33.752V66.136C286.154 68.952 286.239 71.64 286.41 74.2C286.666 76.6747 286.965 78.936 287.306 80.984C287.733 82.9467 288.202 84.6533 288.714 86.104C289.226 87.5547 289.781 88.5787 290.378 89.176C288.927 89.7733 287.221 90.584 285.258 91.608C283.381 92.5467 281.93 93.9973 280.906 95.96C281.418 97.6667 282.911 99.8 285.386 102.36C287.946 104.835 290.89 107.309 294.218 109.784C297.546 112.344 300.959 114.648 304.458 116.696C308.042 118.744 311.071 120.152 313.546 120.92C312.437 119.469 311.327 117.763 310.218 115.8C309.194 113.923 308.341 112.259 307.658 110.808C311.583 113.197 315.21 115.203 318.538 116.824C321.866 118.445 324.981 119.768 327.882 120.792C330.869 121.816 333.727 122.541 336.458 122.968C339.189 123.395 341.962 123.608 344.778 123.608C346.229 123.608 347.722 123.523 349.258 123.352C350.794 123.267 352.415 123.139 354.122 122.968L354.634 124.632Z" fill="black"/>
<path d="M320.8 45.784C322.592 45.6133 324.597 45.3573 326.816 45.016C329.035 44.5893 331.253 44.12 333.472 43.608C335.691 43.096 337.739 42.584 339.616 42.072C341.493 41.4747 342.987 40.92 344.096 40.408C343.925 41.8587 343.755 43.1813 343.584 44.376C343.499 45.5707 343.413 46.8507 343.328 48.216C343.328 49.5813 343.285 51.0747 343.2 52.696C343.2 54.3173 343.2 56.2373 343.2 58.456V81.752L348.576 85.848L360.864 80.472V63.064C360.864 60.1627 360.779 57.7733 360.608 55.896C360.523 54.0187 360.267 52.5253 359.84 51.416C359.413 50.3067 358.816 49.496 358.048 48.984C357.365 48.3867 356.384 47.9173 355.104 47.576V45.912C359.2 45.656 363.211 45.0587 367.136 44.12C371.147 43.1813 374.603 41.9867 377.504 40.536V99.416C377.504 104.792 377.547 109.272 377.632 112.856C377.803 116.525 378.101 119.256 378.528 121.048C376.139 121.048 373.536 121.389 370.72 122.072C367.904 122.84 365.045 123.864 362.144 125.144C359.328 126.424 356.555 127.917 353.824 129.624C351.093 131.416 348.661 133.336 346.528 135.384C341.664 131.8 337.141 129.197 332.96 127.576C328.779 125.955 324.384 125.144 319.776 125.144C320.459 121.56 321.525 118.275 322.976 115.288C324.512 112.387 326.261 109.997 328.224 108.12C329.163 108.205 330.613 108.632 332.576 109.4C334.624 110.253 336.843 111.32 339.232 112.6C341.621 113.88 343.968 115.245 346.272 116.696C348.661 118.147 350.709 119.555 352.416 120.92L362.016 117.848C361.845 116.739 361.675 115.501 361.504 114.136C361.419 112.856 361.291 111.149 361.12 109.016C361.035 106.968 360.949 104.408 360.864 101.336C360.864 98.1787 360.864 94.2107 360.864 89.432C358.389 90.712 356.213 91.9067 354.336 93.016C352.459 94.1253 350.752 95.2347 349.216 96.344C347.68 97.4533 346.229 98.6053 344.864 99.8C343.584 100.909 342.261 102.147 340.896 103.512C339.189 101.976 337.653 100.696 336.288 99.672C335.008 98.5627 333.728 97.5813 332.448 96.728C331.253 95.8747 330.016 95.1067 328.736 94.424C327.541 93.656 326.176 92.8453 324.64 91.992C324.981 91.5653 325.28 90.4987 325.536 88.792C325.877 87 326.176 84.9093 326.432 82.52C326.688 80.0453 326.859 77.4 326.944 74.584C327.115 71.768 327.2 69.08 327.2 66.52C327.2 63.6187 327.072 61.1013 326.816 58.968C326.645 56.8347 326.304 55.0427 325.792 53.592C325.28 52.056 324.597 50.8187 323.744 49.88C322.976 48.856 321.952 47.96 320.672 47.192L320.8 45.784Z" fill="black"/>
<path d="M413.629 40.536C419.517 42.4987 424.424 43.8213 428.349 44.504C432.274 45.1867 435.901 45.528 439.229 45.528C441.106 45.528 442.514 45.528 443.453 45.528C444.477 45.4427 445.458 45.3147 446.397 45.144C445.373 50.6907 444.861 57.2187 444.861 64.728C444.861 73.944 445.629 82.904 447.165 91.608C445.032 91.864 442.77 92.4187 440.381 93.272C437.992 94.1253 435.602 95.192 433.213 96.472C430.824 97.752 428.52 99.2453 426.301 100.952C424.082 102.573 422.077 104.28 420.285 106.072C419.346 105.304 417.725 104.493 415.421 103.64C413.117 102.872 410.6 102.147 407.869 101.464C405.138 100.781 402.408 100.227 399.677 99.8C396.946 99.3733 394.685 99.16 392.893 99.16C392.381 99.16 391.869 99.2027 391.357 99.288C390.93 99.288 390.504 99.3307 390.077 99.416C391.272 98.392 392.125 96.3867 392.637 93.4C393.234 90.328 393.533 86.36 393.533 81.496C393.533 79.0213 393.448 76.3333 393.277 73.432C393.106 70.4453 392.85 67.6293 392.509 64.984C392.253 62.3387 391.954 60.0773 391.613 58.2C391.272 56.3227 390.93 55.1707 390.589 54.744C393.917 54.1467 397.629 52.6107 401.725 50.136C405.821 47.576 409.789 44.376 413.629 40.536ZM428.989 56.792C425.064 56.4507 421.224 55.896 417.469 55.128C413.714 54.2747 410.856 53.336 408.893 52.312C409.32 55.896 409.618 59.2667 409.789 62.424C409.96 65.496 410.045 68.6107 410.045 71.768C410.045 74.2427 409.96 77.0587 409.789 80.216C409.704 83.288 409.576 86.3173 409.405 89.304C412.306 89.6453 415.506 90.1147 419.005 90.712C422.504 91.3093 425.746 92.0773 428.733 93.016L428.989 56.792Z" fill="black"/>
<path d="M477.084 54.872C480.753 52.4827 484.039 50.0933 486.94 47.704C489.841 45.3147 492.828 42.4987 495.9 39.256C497.351 40.6213 498.673 41.8587 499.868 42.968C501.063 43.992 502.257 44.9307 503.452 45.784C504.732 46.6373 506.055 47.4907 507.42 48.344C508.785 49.112 510.364 49.9227 512.156 50.776C511.815 51.9707 511.516 53.2507 511.26 54.616C511.089 55.896 510.919 57.56 510.748 59.608C510.663 61.656 510.577 64.1733 510.492 67.16C510.407 70.1467 510.364 73.8587 510.364 78.296C510.364 82.0507 510.364 85.1653 510.364 87.64C510.449 90.0293 510.535 91.992 510.62 93.528C510.705 95.064 510.833 96.344 511.004 97.368C511.175 98.3067 511.345 99.2027 511.516 100.056C509.809 100.653 508.06 101.464 506.268 102.488C504.561 103.512 502.812 104.664 501.02 105.944C499.313 107.224 497.692 108.547 496.156 109.912C494.62 111.277 493.255 112.6 492.06 113.88L491.292 113.112C491.804 111.405 492.273 109.272 492.7 106.712C493.127 104.237 493.468 101.763 493.724 99.288C493.98 96.728 494.193 94.3813 494.364 92.248C494.535 90.1147 494.62 88.5787 494.62 87.64C494.62 82.776 494.577 77.912 494.492 73.048C494.492 68.184 494.492 63.32 494.492 58.456L492.828 56.664L477.084 63.704V91.224C477.084 96.6 478.236 99.7147 480.54 100.568V102.488H456.988V100.568C458.012 100.141 458.823 99.288 459.42 98.008C460.103 96.6427 460.444 94.7653 460.444 92.376V47.704L455.708 45.656V44.248C458.695 43.8213 461.937 43.2667 465.436 42.584C468.935 41.816 472.049 41.0907 474.78 40.408L477.084 44.248V54.872Z" fill="black"/>
<path d="M615.973 40.28C614.266 39.0853 612.816 37.8907 611.621 36.696C610.512 35.416 609.573 34.0507 608.805 32.6C608.037 31.1493 607.397 29.5707 606.885 27.864C606.373 26.1573 605.946 24.28 605.605 22.232C604.41 21.2933 602.49 20.696 599.845 20.44C597.2 20.184 594.512 20.056 591.781 20.056C589.562 20.056 587.642 20.0987 586.021 20.184C584.4 20.2693 582.992 20.312 581.797 20.312C581.029 22.4453 580.517 26.1147 580.261 31.32C580.005 36.44 579.877 42.328 579.877 48.984C579.877 52.568 579.877 56.2373 579.877 59.992C579.962 63.7467 580.005 67.4587 580.005 71.128C580.09 74.7973 580.133 78.3813 580.133 81.88C580.218 85.2933 580.261 88.4933 580.261 91.48C582.821 92.0773 584.912 92.632 586.533 93.144C588.154 93.5707 589.733 93.9547 591.269 94.296C592.805 94.552 594.554 94.808 596.517 95.064C598.48 95.2347 601.082 95.4053 604.325 95.576C604.496 94.8933 604.581 93.4427 604.581 91.224C604.666 88.92 604.709 86.2747 604.709 83.288C604.709 79.96 604.666 77.1867 604.581 74.968C604.581 72.7493 604.496 70.5307 604.325 68.312C603.216 68.312 602.277 68.2267 601.509 68.056C600.826 67.8 599.973 67.544 598.949 67.288C598.01 67.032 596.73 66.776 595.109 66.52C593.573 66.264 591.482 66.0507 588.837 65.88C589.178 65.2827 589.605 64.5147 590.117 63.576C590.629 62.552 591.141 61.4853 591.653 60.376C592.165 59.2667 592.592 58.2427 592.933 57.304C593.36 56.28 593.658 55.4267 593.829 54.744C597.072 55.4267 600.229 55.9387 603.301 56.28C606.458 56.6213 609.445 56.792 612.261 56.792C615.162 56.792 617.808 56.6213 620.197 56.28C622.586 55.8533 624.592 55.1707 626.213 54.232C625.957 54.9147 625.488 55.896 624.805 57.176C624.208 58.3707 623.568 59.6933 622.885 61.144C622.202 62.5093 621.605 63.8747 621.093 65.24C620.581 66.6053 620.325 67.8 620.325 68.824C620.581 72.408 620.794 75.864 620.965 79.192C621.136 82.52 621.306 85.5493 621.477 88.28C621.733 90.9253 621.946 93.144 622.117 94.936C622.288 96.728 622.501 97.88 622.757 98.392C618.746 99.3307 614.949 100.781 611.365 102.744C607.781 104.792 603.6 107.821 598.821 111.832C595.066 109.528 591.056 107.565 586.789 105.944C582.522 104.323 578.298 102.915 574.117 101.72C570.021 100.44 566.053 99.3307 562.213 98.392C558.458 97.4533 555.173 96.5147 552.357 95.576C553.722 95.2347 554.874 94.424 555.813 93.144C556.837 91.7787 557.648 90.1147 558.245 88.152C558.928 86.1893 559.44 84.0133 559.781 81.624C560.122 79.1493 560.293 76.6747 560.293 74.2C560.293 70.36 559.866 66.6907 559.013 63.192C558.245 59.6933 557.136 57.048 555.685 55.256C557.05 53.8907 558.16 52.0987 559.013 49.88C559.952 47.576 560.677 45.144 561.189 42.584C561.701 39.9387 562.042 37.2507 562.213 34.52C562.384 31.7893 562.469 29.2293 562.469 26.84C562.469 24.8773 562.426 23.1707 562.341 21.72C562.256 20.2693 562.17 19.16 562.085 18.392C560.122 17.7093 558.074 16.3013 555.941 14.168C553.893 12.0347 552.357 9.73067 551.333 7.256C556.794 7.85334 561.957 8.28 566.821 8.536C571.77 8.70667 576.421 8.792 580.773 8.792C590.245 8.792 598.01 8.49333 604.069 7.896C610.128 7.29867 614.821 7 618.149 7C618.832 7 619.429 7.04267 619.941 7.128C620.453 7.128 620.922 7.17067 621.349 7.256C621.008 8.024 620.624 9.34667 620.197 11.224C619.856 13.016 619.472 15.064 619.045 17.368C618.618 19.5867 618.234 21.976 617.893 24.536C617.552 27.0107 617.21 29.3573 616.869 31.576C616.613 33.7093 616.4 35.5867 616.229 37.208C616.058 38.8293 615.973 39.8533 615.973 40.28Z" fill="black"/>
<path d="M653.652 90.456C655.529 90.6267 657.449 90.7547 659.412 90.84C661.46 90.9253 663.977 91.3093 666.964 91.992V73.944C664.489 74.8827 662.1 75.6933 659.796 76.376C657.492 76.9733 655.529 77.3573 653.908 77.528L653.652 90.456ZM686.676 49.624C685.311 51.5867 684.415 54.1893 683.988 57.432C683.647 60.6747 683.476 65.4107 683.476 71.64C683.476 75.736 683.561 79.0213 683.732 81.496C683.988 83.8853 684.329 85.8053 684.756 87.256C685.183 88.6213 685.78 89.6027 686.548 90.2C687.316 90.712 688.255 91.096 689.364 91.352V92.76C688.169 93.1867 686.889 93.9547 685.524 95.064C684.244 96.088 682.964 97.24 681.684 98.52C680.404 99.8 679.252 101.123 678.228 102.488C677.204 103.853 676.436 105.048 675.924 106.072C674.132 104.877 672.511 103.299 671.06 101.336C669.609 99.3733 668.457 97.4107 667.604 95.448L658.772 106.072C655.529 104.109 651.945 102.616 648.02 101.592C644.18 100.568 639.785 100.013 634.836 99.928C635.689 97.7093 636.201 94.936 636.372 91.608C636.543 88.1947 636.628 84.7813 636.628 81.368C636.628 79.32 636.5 77.4 636.244 75.608C635.988 73.7307 635.561 72.0667 634.964 70.616C636.841 70.872 638.889 71 641.108 71C643.497 71 645.929 70.9147 648.404 70.744C650.964 70.488 653.396 70.1467 655.7 69.72C658.004 69.2933 660.095 68.824 661.972 68.312C663.935 67.7147 665.556 67.0747 666.836 66.392V53.72C663.935 55 660.905 56.0667 657.748 56.92C654.591 57.7733 651.988 58.2 649.94 58.2C648.489 58.2 647.124 58.072 645.844 57.816C644.649 57.4747 643.54 56.8773 642.516 56.024C641.492 55.0853 640.553 53.8053 639.7 52.184C638.932 50.5627 638.249 48.472 637.652 45.912C638.164 45.912 638.505 45.9547 638.676 46.04C638.932 46.04 639.572 46.04 640.596 46.04C646.74 46.04 652.031 45.4853 656.468 44.376C660.905 43.2667 664.361 41.9867 666.836 40.536C669.652 43.608 672.553 45.912 675.54 47.448C678.612 48.8987 682.324 49.624 686.676 49.624Z" fill="black"/>
<path d="M762.009 113.112C762.521 111.405 762.99 109.272 763.417 106.712C763.844 104.237 764.185 101.763 764.441 99.288C764.697 96.728 764.91 94.3813 765.081 92.248C765.252 90.1147 765.337 88.5787 765.337 87.64C765.337 82.776 765.294 77.912 765.209 73.048C765.209 68.184 765.209 63.32 765.209 58.456L763.545 56.664L749.209 62.808C749.124 64.6853 749.081 67.16 749.081 70.232C749.081 73.304 749.081 76.4187 749.081 79.576V91.224C749.081 96.6 750.233 99.7147 752.537 100.568V102.488H729.753V100.568C730.777 100.141 731.588 99.288 732.185 98.008C732.868 96.6427 733.209 94.7653 733.209 92.376V58.456L731.545 56.664L717.337 62.808V91.224C717.337 96.6 718.489 99.7147 720.793 100.568V102.488H697.241V100.568C698.265 100.141 699.076 99.288 699.673 98.008C700.356 96.6427 700.697 94.7653 700.697 92.376V47.704L695.961 45.656V44.248C698.948 43.8213 702.19 43.2667 705.689 42.584C709.188 41.816 712.302 41.0907 715.033 40.408L717.337 44.248V54.744C720.665 52.3547 723.652 50.008 726.297 47.704C729.028 45.3147 731.801 42.4987 734.617 39.256C736.068 40.6213 737.39 41.8587 738.585 42.968C739.78 43.992 740.974 44.9307 742.169 45.784C743.449 46.6373 744.772 47.4907 746.137 48.344C747.502 49.112 749.081 49.9227 750.873 50.776L750.105 54.232C753.262 51.928 756.121 49.624 758.681 47.32C761.241 45.016 763.886 42.328 766.617 39.256C768.068 40.6213 769.39 41.8587 770.585 42.968C771.78 43.992 772.974 44.9307 774.169 45.784C775.449 46.6373 776.772 47.4907 778.137 48.344C779.502 49.112 781.081 49.9227 782.873 50.776C782.532 51.9707 782.233 53.2507 781.977 54.616C781.806 55.896 781.636 57.56 781.465 59.608C781.38 61.656 781.294 64.1733 781.209 67.16C781.124 70.1467 781.081 73.8587 781.081 78.296C781.081 82.0507 781.081 85.1653 781.081 87.64C781.166 90.0293 781.252 91.992 781.337 93.528C781.422 95.064 781.55 96.344 781.721 97.368C781.892 98.3067 782.062 99.2027 782.233 100.056C780.526 100.653 778.777 101.464 776.985 102.488C775.278 103.512 773.529 104.664 771.737 105.944C770.03 107.224 768.409 108.547 766.873 109.912C765.337 111.277 763.972 112.6 762.777 113.88L762.009 113.112Z" fill="black"/>
<path d="M819.07 106.584C817.449 105.389 815.443 104.28 813.054 103.256C810.665 102.232 808.19 101.379 805.63 100.696C803.155 99.928 800.723 99.3307 798.334 98.904C796.03 98.4773 794.11 98.264 792.574 98.264C793.257 97.1547 793.854 95.6187 794.366 93.656C794.878 91.608 795.262 89.432 795.518 87.128C795.859 84.7387 796.073 82.3067 796.158 79.832C796.329 77.3573 796.414 75.096 796.414 73.048C796.414 67.8427 796.073 63.5333 795.39 60.12C794.793 56.6213 794.195 53.8907 793.598 51.928C797.267 51.2453 800.595 49.9227 803.582 47.96C806.654 45.9973 809.683 43.5227 812.67 40.536C816.169 41.2187 820.478 41.816 825.598 42.328C830.718 42.7547 835.795 43.0533 840.83 43.224C840.574 44.76 840.446 46.68 840.446 48.984C840.446 50.776 840.531 52.7387 840.702 54.872C840.873 56.92 841.086 58.968 841.342 61.016C841.598 63.064 841.939 65.0267 842.366 66.904C842.793 68.7813 843.262 70.4027 843.774 71.768C838.569 72.1947 833.278 72.792 827.902 73.56C822.526 74.2427 817.278 75.0107 812.158 75.864C812.073 78.3387 811.902 80.7707 811.646 83.16C811.39 85.5493 811.177 87.64 811.006 89.432C812.03 89.8587 813.31 90.2427 814.846 90.584C816.467 90.9253 818.174 91.2667 819.966 91.608C821.758 91.864 823.507 92.12 825.214 92.376C826.921 92.5467 828.371 92.6747 829.566 92.76C829.993 90.1147 831.017 87.8533 832.638 85.976C834.345 84.0987 837.203 82.5627 841.214 81.368C841.129 82.392 841.086 83.416 841.086 84.44C841.086 85.3787 841.086 86.3173 841.086 87.256C841.086 90.1573 841.171 92.4613 841.342 94.168C841.598 95.7893 842.025 97.4107 842.622 99.032C841.001 99.2027 839.081 99.544 836.862 100.056C834.643 100.483 832.425 101.08 830.206 101.848C827.987 102.531 825.854 103.256 823.806 104.024C821.843 104.877 820.265 105.731 819.07 106.584ZM810.878 52.056C811.305 55.64 811.603 58.7973 811.774 61.528C812.03 64.2587 812.201 66.776 812.286 69.08L827.262 65.368C826.835 63.6613 826.451 61.8693 826.11 59.992C825.854 58.1147 825.726 56.1947 825.726 54.232C823.763 54.232 821.374 54.0613 818.558 53.72C815.827 53.2933 813.267 52.7387 810.878 52.056Z" fill="black"/>
<path d="M357.706 237.656C352.842 235.949 348.021 234.072 343.242 232.024C338.549 230.061 333.898 227.715 329.29 224.984C328.181 226.093 327.199 227.032 326.346 227.8C325.493 228.568 324.597 229.251 323.658 229.848C322.719 230.36 321.695 230.787 320.586 231.128C319.562 231.555 318.325 231.939 316.874 232.28C317.727 231.256 318.325 230.019 318.666 228.568C319.007 227.117 319.178 225.624 319.178 224.088C319.178 221.613 318.837 219.224 318.154 216.92C317.557 214.531 317.002 212.525 316.49 210.904L313.418 201.176C310.943 204.419 308.469 208.003 305.994 211.928C303.605 215.853 301.514 219.608 299.722 223.192C298.271 221.144 296.309 218.243 293.834 214.488C291.445 210.733 288.757 206.68 285.77 202.328L283.722 208.984C283.21 210.691 282.783 212.397 282.442 214.104C282.186 215.811 282.058 217.56 282.058 219.352C282.058 221.997 282.399 224.6 283.082 227.16C283.765 229.72 284.874 232.109 286.41 234.328C284.703 233.731 283.253 233.133 282.058 232.536C280.949 231.939 279.882 231.256 278.858 230.488C277.919 229.72 276.938 228.909 275.914 228.056C274.975 227.117 273.866 226.051 272.586 224.856C269.002 228.269 265.461 230.659 261.962 232.024C258.463 233.475 254.538 234.243 250.186 234.328C251.807 234.072 253.514 233.005 255.306 231.128C257.098 229.336 258.847 226.989 260.554 224.088C262.261 221.101 263.882 217.731 265.418 213.976C267.039 210.221 268.447 206.253 269.642 202.072L273.738 187.736C270.751 184.579 267.509 181.891 264.01 179.672C260.511 177.368 257.354 176.216 254.538 176.216C254.367 176.216 254.154 176.216 253.898 176.216C253.642 176.216 253.13 176.259 252.362 176.344L252.234 175.96C255.903 174.083 259.317 173.144 262.474 173.144C264.607 173.144 266.783 173.571 269.002 174.424C271.221 175.192 273.781 176.387 276.682 178.008L283.594 154.328C284.021 152.877 284.319 151.597 284.49 150.488C284.661 149.379 284.746 148.483 284.746 147.8C284.746 146.008 284.191 144.728 283.082 143.96C282.058 143.192 280.181 142.808 277.45 142.808C275.743 142.808 273.909 142.936 271.946 143.192C269.983 143.448 267.637 143.832 264.906 144.344C265.418 143.576 266.655 142.68 268.618 141.656C270.581 140.632 272.927 139.651 275.658 138.712C278.474 137.773 281.461 137.005 284.618 136.408C287.861 135.725 290.975 135.384 293.962 135.384C296.181 135.384 298.314 135.64 300.362 136.152C302.41 136.664 303.946 137.56 304.97 138.84C306.506 138.755 308.17 138.541 309.962 138.2C311.754 137.859 313.461 137.475 315.082 137.048C316.703 136.536 318.154 136.067 319.434 135.64C320.714 135.128 321.567 134.744 321.994 134.488C320.799 136.195 319.903 138.243 319.306 140.632C318.794 142.936 318.538 145.453 318.538 148.184C318.538 151.683 318.922 155.352 319.69 159.192C320.458 162.947 321.354 166.445 322.378 169.688C323.487 172.931 324.639 175.704 325.834 178.008C327.029 180.312 328.053 181.72 328.906 182.232C328.906 187.267 329.759 192.6 331.466 198.232C333.258 203.864 335.519 209.24 338.25 214.36C341.066 219.48 344.181 224.088 347.594 228.184C351.093 232.195 354.506 235.224 357.834 237.272L357.706 237.656ZM299.594 202.2C301.045 200.237 302.666 198.147 304.458 195.928C306.335 193.624 308.042 191.363 309.578 189.144L299.722 157.144L289.61 190.168C291.317 191.96 293.023 193.965 294.73 196.184C296.522 198.403 298.143 200.408 299.594 202.2Z" fill="black"/>
<path d="M405.638 196.568C405.638 201.347 405.723 205.144 405.894 207.96C406.065 210.776 406.363 212.995 406.79 214.616C407.302 216.152 407.899 217.261 408.582 217.944C409.35 218.541 410.289 219.011 411.398 219.352V220.76C410.203 221.187 408.923 221.955 407.558 223.064C406.278 224.088 404.998 225.24 403.718 226.52C402.438 227.8 401.286 229.123 400.262 230.488C399.238 231.853 398.47 233.048 397.958 234.072C396.166 232.877 394.545 231.299 393.094 229.336C391.643 227.373 390.491 225.411 389.638 223.448C388.102 224.472 386.353 225.496 384.39 226.52C382.427 227.544 380.337 228.525 378.118 229.464C375.985 230.317 373.766 231.085 371.462 231.768C369.158 232.536 366.939 233.176 364.806 233.688C362.758 231.469 360.539 229.635 358.15 228.184C355.761 226.733 353.329 225.667 350.854 224.984C351.793 221.4 352.347 218.029 352.518 214.872C352.689 211.629 352.774 208.387 352.774 205.144C352.774 201.048 352.731 197.549 352.646 194.648C352.561 191.661 352.39 189.144 352.134 187.096C351.963 184.963 351.75 183.256 351.494 181.976C351.238 180.611 350.939 179.501 350.598 178.648C354.438 177.965 358.321 176.685 362.246 174.808C366.257 172.845 370.225 170.499 374.15 167.768C376.795 168.877 379.27 169.731 381.574 170.328C383.878 170.925 386.353 171.352 388.998 171.608V153.048C388.998 150.915 388.955 148.995 388.87 147.288C388.785 145.581 388.571 144.003 388.23 142.552C387.974 141.101 387.59 139.693 387.078 138.328C386.566 136.963 385.926 135.555 385.158 134.104C386.865 134.701 388.87 135 391.174 135C393.99 135 396.934 134.531 400.006 133.592C403.163 132.653 406.534 131.331 410.118 129.624C408.411 131.672 407.217 134.403 406.534 137.816C405.937 141.229 405.638 145.155 405.638 149.592V196.568ZM378.374 180.44C377.35 181.379 375.942 182.445 374.15 183.64C372.443 184.749 370.907 185.603 369.542 186.2C369.713 188.077 369.798 190.637 369.798 193.88C369.883 197.037 369.926 200.067 369.926 202.968C369.926 205.699 369.841 208.429 369.67 211.16C369.585 213.891 369.457 216.408 369.286 218.712C370.993 218.627 372.785 218.413 374.662 218.072C376.625 217.645 378.502 217.176 380.294 216.664C382.086 216.152 383.75 215.597 385.286 215C386.822 214.317 388.059 213.677 388.998 213.08V183C387.633 182.915 385.926 182.616 383.878 182.104C381.83 181.592 379.995 181.037 378.374 180.44Z" fill="black"/>
<path d="M444.957 234.072C442.482 232.28 439.41 230.573 435.741 228.952C432.072 227.331 428.274 226.051 424.349 225.112C424.434 224.088 424.52 222.936 424.605 221.656C424.69 220.291 424.733 218.925 424.733 217.56C424.818 216.109 424.861 214.744 424.861 213.464C424.946 212.099 424.989 210.947 424.989 210.008C424.989 202.243 424.392 195.715 423.197 190.424C422.088 185.133 420.68 181.08 418.973 178.264L415.261 177.496V175.32C416.712 175.149 418.461 174.851 420.509 174.424C422.557 173.912 424.562 173.357 426.525 172.76C428.573 172.077 430.45 171.395 432.157 170.712C433.864 169.944 435.144 169.219 435.997 168.536C438.045 171.523 439.453 176.429 440.221 183.256C441.074 190.083 441.501 198.104 441.501 207.32C441.501 209.112 441.501 210.947 441.501 212.824C441.501 214.616 441.458 216.493 441.373 218.456L447.773 221.912H448.541C449.736 219.864 450.76 217.304 451.613 214.232C452.552 211.075 453.32 207.789 453.917 204.376C454.6 200.963 455.112 197.635 455.453 194.392C455.794 191.064 455.965 188.163 455.965 185.688C455.965 182.275 455.581 179.715 454.813 178.008C454.13 176.301 453.064 175.107 451.613 174.424L451.741 172.376C455.069 172.12 458.44 171.693 461.853 171.096C465.266 170.413 468.637 169.56 471.965 168.536C471.794 168.792 471.709 169.091 471.709 169.432C471.709 169.773 471.709 170.157 471.709 170.584C471.709 173.315 471.88 175.917 472.221 178.392C472.562 180.781 473.33 182.616 474.525 183.896L462.109 221.784L446.237 234.072H444.957Z" fill="black"/>
<path d="M507.82 234.584C506.199 233.389 504.193 232.28 501.804 231.256C499.415 230.232 496.94 229.379 494.38 228.696C491.905 227.928 489.473 227.331 487.084 226.904C484.78 226.477 482.86 226.264 481.324 226.264C482.007 225.155 482.604 223.619 483.116 221.656C483.628 219.608 484.012 217.432 484.268 215.128C484.609 212.739 484.823 210.307 484.908 207.832C485.079 205.357 485.164 203.096 485.164 201.048C485.164 195.843 484.823 191.533 484.14 188.12C483.543 184.621 482.945 181.891 482.348 179.928C486.017 179.245 489.345 177.923 492.332 175.96C495.404 173.997 498.433 171.523 501.42 168.536C504.919 169.219 509.228 169.816 514.348 170.328C519.468 170.755 524.545 171.053 529.58 171.224C529.324 172.76 529.196 174.68 529.196 176.984C529.196 178.776 529.281 180.739 529.452 182.872C529.623 184.92 529.836 186.968 530.092 189.016C530.348 191.064 530.689 193.027 531.116 194.904C531.543 196.781 532.012 198.403 532.524 199.768C527.319 200.195 522.028 200.792 516.652 201.56C511.276 202.243 506.028 203.011 500.908 203.864C500.823 206.339 500.652 208.771 500.396 211.16C500.14 213.549 499.927 215.64 499.756 217.432C500.78 217.859 502.06 218.243 503.596 218.584C505.217 218.925 506.924 219.267 508.716 219.608C510.508 219.864 512.257 220.12 513.964 220.376C515.671 220.547 517.121 220.675 518.316 220.76C518.743 218.115 519.767 215.853 521.388 213.976C523.095 212.099 525.953 210.563 529.964 209.368C529.879 210.392 529.836 211.416 529.836 212.44C529.836 213.379 529.836 214.317 529.836 215.256C529.836 218.157 529.921 220.461 530.092 222.168C530.348 223.789 530.775 225.411 531.372 227.032C529.751 227.203 527.831 227.544 525.612 228.056C523.393 228.483 521.175 229.08 518.956 229.848C516.737 230.531 514.604 231.256 512.556 232.024C510.593 232.877 509.015 233.731 507.82 234.584ZM499.628 180.056C500.055 183.64 500.353 186.797 500.524 189.528C500.78 192.259 500.951 194.776 501.036 197.08L516.012 193.368C515.585 191.661 515.201 189.869 514.86 187.992C514.604 186.115 514.476 184.195 514.476 182.232C512.513 182.232 510.124 182.061 507.308 181.72C504.577 181.293 502.017 180.739 499.628 180.056Z" fill="black"/>
<path d="M562.084 182.872C565.753 180.483 569.039 178.093 571.94 175.704C574.841 173.315 577.828 170.499 580.9 167.256C582.351 168.621 583.673 169.859 584.868 170.968C586.063 171.992 587.257 172.931 588.452 173.784C589.732 174.637 591.055 175.491 592.42 176.344C593.785 177.112 595.364 177.923 597.156 178.776C596.815 179.971 596.516 181.251 596.26 182.616C596.089 183.896 595.919 185.56 595.748 187.608C595.663 189.656 595.577 192.173 595.492 195.16C595.407 198.147 595.364 201.859 595.364 206.296C595.364 210.051 595.364 213.165 595.364 215.64C595.449 218.029 595.535 219.992 595.62 221.528C595.705 223.064 595.833 224.344 596.004 225.368C596.175 226.307 596.345 227.203 596.516 228.056C594.809 228.653 593.06 229.464 591.268 230.488C589.561 231.512 587.812 232.664 586.02 233.944C584.313 235.224 582.692 236.547 581.156 237.912C579.62 239.277 578.255 240.6 577.06 241.88L576.292 241.112C576.804 239.405 577.273 237.272 577.7 234.712C578.127 232.237 578.468 229.763 578.724 227.288C578.98 224.728 579.193 222.381 579.364 220.248C579.535 218.115 579.62 216.579 579.62 215.64C579.62 210.776 579.577 205.912 579.492 201.048C579.492 196.184 579.492 191.32 579.492 186.456L577.828 184.664L562.084 191.704V219.224C562.084 224.6 563.236 227.715 565.54 228.568V230.488H541.988V228.568C543.012 228.141 543.823 227.288 544.42 226.008C545.103 224.643 545.444 222.765 545.444 220.376V175.704L540.708 173.656V172.248C543.695 171.821 546.937 171.267 550.436 170.584C553.935 169.816 557.049 169.091 559.78 168.408L562.084 172.248V182.872Z" fill="black"/>
<path d="M631.519 181.336V209.624C631.519 214.061 632.586 217.389 634.719 219.608C636.938 221.827 639.668 223.021 642.911 223.192V224.984C641.46 225.496 639.924 226.136 638.303 226.904C636.682 227.672 635.103 228.483 633.567 229.336C632.031 230.104 630.58 230.915 629.215 231.768C627.85 232.621 626.783 233.389 626.015 234.072C624.052 232.877 622.047 231.725 619.999 230.616C617.951 229.507 616.244 228.611 614.879 227.928V180.312H604.255V178.904C608.01 177.453 611.551 175.235 614.879 172.248V168.152C614.879 167.469 614.794 166.403 614.623 164.952C614.538 163.416 614.41 161.88 614.239 160.344C614.068 158.723 613.855 157.272 613.599 155.992C613.343 154.627 613.044 153.731 612.703 153.304C616.543 153.048 620.084 152.28 623.327 151C626.57 149.72 630.026 148.099 633.695 146.136C633.354 146.989 633.055 148.312 632.799 150.104C632.543 151.896 632.287 153.816 632.031 155.864C631.86 157.827 631.732 159.747 631.647 161.624C631.562 163.416 631.519 164.696 631.519 165.464V172.248H649.567V172.76C648.202 174.211 646.964 175.832 645.855 177.624C644.831 179.416 644.106 181.165 643.679 182.872L631.519 181.336Z" fill="black"/>
<path d="M650.291 173.784C652.083 173.613 654.088 173.357 656.307 173.016C658.526 172.589 660.744 172.12 662.963 171.608C665.182 171.096 667.23 170.584 669.107 170.072C670.984 169.475 672.478 168.92 673.587 168.408C673.416 169.859 673.246 171.181 673.075 172.376C672.99 173.571 672.904 174.851 672.819 176.216C672.819 177.581 672.776 179.075 672.691 180.696C672.691 182.317 672.691 184.237 672.691 186.456V212.312L678.067 216.408L690.355 211.032V191.064C690.355 188.163 690.27 185.773 690.099 183.896C690.014 182.019 689.758 180.525 689.331 179.416C688.904 178.307 688.307 177.496 687.539 176.984C686.856 176.387 685.875 175.917 684.595 175.576V173.912C688.691 173.656 692.702 173.059 696.627 172.12C700.638 171.181 704.094 169.987 706.995 168.536V198.744C706.995 202.755 707.08 206.04 707.251 208.6C707.422 211.075 707.72 213.08 708.147 214.616C708.574 216.152 709.128 217.261 709.811 217.944C710.579 218.627 711.56 219.096 712.755 219.352V220.76C711.646 221.272 710.408 222.04 709.043 223.064C707.678 224.088 706.355 225.24 705.075 226.52C703.795 227.8 702.643 229.123 701.619 230.488C700.595 231.768 699.827 232.963 699.315 234.072C696.499 231.683 694.451 229.464 693.171 227.416C691.976 225.368 691.166 222.851 690.739 219.864C688.179 221.144 685.918 222.339 683.955 223.448C682.078 224.557 680.328 225.667 678.707 226.776C677.171 227.885 675.72 229.037 674.355 230.232C673.075 231.427 671.752 232.707 670.387 234.072C668.68 232.536 667.144 231.256 665.779 230.232C664.499 229.123 663.219 228.141 661.939 227.288C660.744 226.435 659.507 225.667 658.227 224.984C657.032 224.216 655.667 223.405 654.131 222.552C654.472 222.04 654.771 220.888 655.027 219.096C655.368 217.304 655.667 215.128 655.923 212.568C656.179 210.008 656.35 207.277 656.435 204.376C656.606 201.389 656.691 198.531 656.691 195.8C656.691 192.728 656.563 190.083 656.307 187.864C656.136 185.56 655.795 183.597 655.283 181.976C654.771 180.355 654.088 179.032 653.235 178.008C652.467 176.899 651.443 175.96 650.163 175.192L650.291 173.784Z" fill="black"/>
<path d="M741.462 189.4C743.425 186.243 745.259 182.915 746.966 179.416C748.673 175.917 750.251 172.205 751.702 168.28C753.323 169.304 755.627 170.371 758.614 171.48C761.601 172.504 764.886 173.443 768.47 174.296C768.043 177.88 767.275 181.165 766.166 184.152C765.057 187.053 763.649 189.485 761.942 191.448L753.366 186.968H751.83L741.462 201.56V219.224C741.462 222.211 741.974 224.387 742.998 225.752C744.107 227.032 746.027 227.885 748.758 228.312V230.488H721.366V228.568C723.67 227.715 724.822 224.984 724.822 220.376V175.704L720.086 173.656V172.248C723.073 171.821 726.315 171.267 729.814 170.584C733.313 169.816 736.427 169.091 739.158 168.408L741.462 172.248V189.4Z" fill="black"/>
<path d="M799.195 234.584C797.574 233.389 795.568 232.28 793.179 231.256C790.79 230.232 788.315 229.379 785.755 228.696C783.28 227.928 780.848 227.331 778.459 226.904C776.155 226.477 774.235 226.264 772.699 226.264C773.382 225.155 773.979 223.619 774.491 221.656C775.003 219.608 775.387 217.432 775.643 215.128C775.984 212.739 776.198 210.307 776.283 207.832C776.454 205.357 776.539 203.096 776.539 201.048C776.539 195.843 776.198 191.533 775.515 188.12C774.918 184.621 774.32 181.891 773.723 179.928C777.392 179.245 780.72 177.923 783.707 175.96C786.779 173.997 789.808 171.523 792.795 168.536C796.294 169.219 800.603 169.816 805.723 170.328C810.843 170.755 815.92 171.053 820.955 171.224C820.699 172.76 820.571 174.68 820.571 176.984C820.571 178.776 820.656 180.739 820.827 182.872C820.998 184.92 821.211 186.968 821.467 189.016C821.723 191.064 822.064 193.027 822.491 194.904C822.918 196.781 823.387 198.403 823.899 199.768C818.694 200.195 813.403 200.792 808.027 201.56C802.651 202.243 797.403 203.011 792.283 203.864C792.198 206.339 792.027 208.771 791.771 211.16C791.515 213.549 791.302 215.64 791.131 217.432C792.155 217.859 793.435 218.243 794.971 218.584C796.592 218.925 798.299 219.267 800.091 219.608C801.883 219.864 803.632 220.12 805.339 220.376C807.046 220.547 808.496 220.675 809.691 220.76C810.118 218.115 811.142 215.853 812.763 213.976C814.47 212.099 817.328 210.563 821.339 209.368C821.254 210.392 821.211 211.416 821.211 212.44C821.211 213.379 821.211 214.317 821.211 215.256C821.211 218.157 821.296 220.461 821.467 222.168C821.723 223.789 822.15 225.411 822.747 227.032C821.126 227.203 819.206 227.544 816.987 228.056C814.768 228.483 812.55 229.08 810.331 229.848C808.112 230.531 805.979 231.256 803.931 232.024C801.968 232.877 800.39 233.731 799.195 234.584ZM791.003 180.056C791.43 183.64 791.728 186.797 791.899 189.528C792.155 192.259 792.326 194.776 792.411 197.08L807.387 193.368C806.96 191.661 806.576 189.869 806.235 187.992C805.979 186.115 805.851 184.195 805.851 182.232C803.888 182.232 801.499 182.061 798.683 181.72C795.952 181.293 793.392 180.739 791.003 180.056Z" fill="black"/>
<path d="M852.307 178.904C852.136 180.269 852.008 181.592 851.923 182.872C851.923 184.152 851.923 185.645 851.923 187.352C851.923 189.059 851.966 190.765 852.051 192.472C852.136 194.179 852.264 195.715 852.435 197.08C854.056 196.483 855.72 195.971 857.427 195.544C859.219 195.117 861.182 194.733 863.315 194.392C865.534 194.051 868.008 193.752 870.739 193.496C873.47 193.24 876.67 192.984 880.339 192.728C880.083 195.715 879.955 200.067 879.955 205.784C879.955 210.648 880.04 215 880.211 218.84C880.382 222.595 880.68 225.453 881.107 227.416C878.462 227.416 875.774 227.587 873.043 227.928C870.312 228.269 867.71 228.739 865.235 229.336C862.76 229.933 860.456 230.659 858.323 231.512C856.19 232.365 854.398 233.304 852.947 234.328C851.923 233.389 850.771 232.579 849.491 231.896C848.296 231.213 846.846 230.659 845.139 230.232C843.432 229.72 841.427 229.336 839.123 229.08C836.819 228.739 834.088 228.483 830.931 228.312C831.102 225.667 831.614 222.979 832.467 220.248C833.406 217.432 834.558 215.171 835.923 213.464C837.886 213.464 840.958 214.189 845.139 215.64C849.32 217.091 854.867 219.352 861.779 222.424C862.291 219.693 862.675 217.219 862.931 215C863.187 212.696 863.315 210.307 863.315 207.832C863.315 206.296 863.315 205.187 863.315 204.504C863.315 203.821 863.272 203.181 863.187 202.584C859.432 202.925 855.08 203.565 850.131 204.504C845.182 205.357 840.531 206.381 836.179 207.576C836.52 203.907 836.734 201.091 836.819 199.128C836.904 197.08 836.947 195.245 836.947 193.624C836.947 189.784 836.734 186.413 836.307 183.512C835.966 180.611 835.368 177.923 834.515 175.448C837.758 175.448 841.256 174.893 845.011 173.784C848.766 172.675 853.459 170.925 859.091 168.536C864.467 171.267 872.488 173.016 883.155 173.784C881.619 177.453 879.87 180.141 877.907 181.848C875.944 183.469 873.512 184.28 870.611 184.28C869.331 184.28 867.88 184.152 866.259 183.896C864.638 183.64 862.974 183.256 861.267 182.744C859.646 182.232 858.024 181.677 856.403 181.08C854.867 180.397 853.502 179.672 852.307 178.904Z" fill="black"/>
<path fill-rule="evenodd" clip-rule="evenodd" d="M60.7402 84.0965C61.6929 84.6304 62.6816 85.1846 63.5359 85.2383C63.4671 88.7462 64.2951 93.1301 67.123 96.6112C70.511 100.782 76.2836 103.089 85.0566 101.781C85.3189 102.425 85.6137 103.12 85.9273 103.859L85.9274 103.859L85.9274 103.859C87.7811 108.23 90.2917 114.149 90.6227 120.173L90.633 120.376C90.6299 120.309 90.6264 120.241 90.6227 120.173C89.8322 103.262 86.6662 91.7815 79.2985 86.1725C72.1402 80.7229 63.9288 82.0985 58.3011 83.0413C58.1999 83.0582 58.0996 83.075 58.0001 83.0916C58.7299 82.9697 59.7142 83.5214 60.7402 84.0965ZM70.8346 93.5791C69.0809 91.4204 68.3853 88.5661 68.3223 86.0295C71.0174 86.7591 73.8033 88.0164 76.4038 89.9961C78.6984 91.7429 80.903 94.0945 82.7902 97.2276C76.2064 97.8729 72.7158 95.8949 70.8346 93.5791Z" fill="#242424"/>
<path d="M72.7607 137.659C72.3201 137.659 71.9629 138.017 71.9629 138.459V144.219H66.2182C65.7775 144.219 65.4203 144.578 65.4203 145.019V149.5C65.4203 149.942 65.7775 150.3 66.2182 150.3H71.9629V156.061C71.9629 156.503 72.3201 156.861 72.7607 156.861H77.2288C77.6695 156.861 78.0267 156.503 78.0267 156.061V150.3H83.7714C84.212 150.3 84.5692 149.942 84.5692 149.5V145.019C84.5692 144.578 84.212 144.219 83.7714 144.219H78.0267V138.459C78.0267 138.017 77.6695 137.659 77.2288 137.659H72.7607Z" fill="#242424"/>
<path fill-rule="evenodd" clip-rule="evenodd" d="M146.464 85.2383C147.318 85.1846 148.307 84.6304 149.26 84.0965C150.286 83.5214 151.27 82.9697 152 83.0916C151.9 83.075 151.8 83.0582 151.699 83.0413C146.071 82.0985 137.86 80.7229 130.701 86.1725C123.334 91.7815 120.168 103.262 119.377 120.173C119.373 120.241 119.37 120.309 119.367 120.376L119.377 120.173C119.708 114.149 122.219 108.23 124.072 103.859L124.072 103.859C124.386 103.12 124.681 102.425 124.943 101.781C133.716 103.089 139.489 100.782 142.877 96.6112C145.705 93.1301 146.533 88.7462 146.464 85.2383ZM141.678 86.0295C141.615 88.5661 140.919 91.4204 139.165 93.5791C137.284 95.8949 133.793 97.8729 127.21 97.2276C129.097 94.0945 131.301 91.7429 133.596 89.9961C136.197 88.0164 138.982 86.7591 141.678 86.0295Z" fill="#242424"/>
<path d="M138.364 140.821C138.364 138.964 136.861 137.457 135.01 137.457C133.158 137.457 131.655 138.964 131.655 140.821C131.655 142.678 133.158 144.185 135.01 144.185C136.861 144.185 138.364 142.678 138.364 140.821Z" fill="#242424"/>
<path d="M135.01 150.088C136.861 150.088 138.364 151.595 138.364 153.452C138.364 155.308 136.861 156.815 135.01 156.815C133.158 156.815 131.655 155.308 131.655 153.452C131.655 151.595 133.158 150.088 135.01 150.088Z" fill="#242424"/>
<path d="M145.073 147.136C145.073 145.28 143.57 143.773 141.718 143.773C139.867 143.773 138.364 145.28 138.364 147.136C138.364 148.993 139.867 150.5 141.718 150.5C143.57 150.5 145.073 148.993 145.073 147.136Z" fill="#242424"/>
<path d="M128.301 143.773C130.153 143.773 131.655 145.28 131.655 147.136C131.655 148.993 130.153 150.5 128.301 150.5C126.449 150.5 124.947 148.993 124.947 147.136C124.947 145.28 126.449 143.773 128.301 143.773Z" fill="#242424"/>
<path fill-rule="evenodd" clip-rule="evenodd" d="M45.1101 10.0987C64.7622 5.32124 86.6511 0 105 0C123.349 0 145.238 5.32124 164.89 10.0987C178.565 13.4231 191.157 16.4842 200.719 17.3058C207.172 17.8603 210.813 18.1732 209.846 18.2835C209.846 18.2835 188.936 161.021 181.244 181.63C175.911 195.92 157.578 206.966 140.164 217.458C123.703 227.376 108.063 236.799 105 248C101.937 236.799 86.297 227.376 69.836 217.458C52.4221 206.966 34.0893 195.92 28.7558 181.63C21.0638 161.021 0.154468 18.2835 0.154468 18.2835C-0.812957 18.1732 2.82775 17.8603 9.28109 17.3058C18.8434 16.4842 31.4352 13.4231 45.1101 10.0987ZM90.1105 55.3597C96.2429 58.3046 101.247 60.7076 104.995 60.7076L104.995 158.729L104.995 140.294C101.61 139.432 98.7266 137.793 96.3778 135.898C99.4613 135.091 101.514 134.827 104.995 134.785V129.505C100.422 129.567 98.0904 130.01 95.7488 130.454C94.5282 130.686 93.3047 130.918 91.7596 131.098C91.5401 130.989 91.2512 130.857 90.9247 130.708L90.9243 130.708L90.9241 130.707C89.574 130.091 87.5817 129.182 87.2022 128.377C87.2941 128.572 87.3897 128.777 87.4895 128.991L87.4929 128.998C89.4621 133.214 93.047 140.889 101.005 144.059V153.998C98.181 154.168 95.8665 154.641 93.8613 155.325C91.3199 156.19 89.3808 157.359 87.6595 158.485C87.33 158.701 87.0085 158.915 86.6914 159.125C83.7839 161.058 81.2477 162.744 76.3701 163.342C75.8125 163.395 75.2473 163.422 74.6757 163.422C64.9813 163.422 57.1225 155.613 57.1225 145.98C57.1225 138.9 61.3668 132.806 67.4649 130.072C61.9553 128.415 52.2046 122.486 51.5374 109.895C50.8353 96.6454 46.2981 71.6769 44.1172 60.8489C43.2129 54.288 46.064 42.1105 64.7023 45.887C74.5316 47.8786 83.0656 51.9767 90.1105 55.3597ZM78.8742 167.805C83.7297 166.869 86.6824 164.899 89.3314 163.132L89.3317 163.131L89.332 163.131L89.3329 163.131L89.3335 163.13C89.651 162.918 89.9642 162.709 90.2756 162.506C91.8755 161.459 93.4221 160.544 95.4011 159.87C97.3771 159.197 99.8895 158.729 103.399 158.729H104.995L104.995 188.214C86.5226 188.214 79.5356 175.381 78.8742 167.805ZM119.889 55.3597C113.757 58.3046 108.753 60.7076 105.005 60.7076L105.005 129.505C109.578 129.567 111.909 130.01 114.251 130.454C115.472 130.686 116.695 130.918 118.24 131.098C118.46 130.989 118.749 130.857 119.076 130.708L119.076 130.707C120.426 130.091 122.418 129.182 122.798 128.377C122.755 128.469 122.711 128.562 122.666 128.658C122.614 128.768 122.562 128.881 122.508 128.996L122.507 128.998C120.538 133.214 116.953 140.889 108.994 144.059V153.998C111.819 154.168 114.133 154.641 116.139 155.325C118.68 156.19 120.619 157.359 122.34 158.485C122.67 158.701 122.991 158.915 123.308 159.125C126.216 161.058 128.752 162.744 133.629 163.341C134.187 163.395 134.753 163.422 135.324 163.422C145.019 163.422 152.877 155.613 152.877 145.98C152.877 138.9 148.633 132.806 142.535 130.072C148.045 128.415 157.795 122.486 158.463 109.895C159.165 96.6454 163.702 71.6769 165.883 60.8489C166.787 54.288 163.936 42.1105 145.298 45.887C135.468 47.8786 126.934 51.9767 119.889 55.3597ZM131.126 167.805C126.27 166.869 123.317 164.899 120.668 163.132L120.668 163.131L120.668 163.131L120.666 163.13C120.349 162.918 120.036 162.709 119.724 162.506C118.124 161.459 116.578 160.544 114.599 159.87C112.623 159.197 110.11 158.729 106.601 158.729H105.005V188.214C123.477 188.214 130.464 175.381 131.126 167.805ZM105.005 140.294C108.39 139.432 111.273 137.793 113.622 135.898C110.539 135.091 108.486 134.827 105.005 134.785V140.294Z" fill="#242424"/>
<path fill-rule="evenodd" clip-rule="evenodd" d="M63.5359 85.2383C62.6816 85.1846 61.6929 84.6304 60.7402 84.0965C59.7142 83.5214 58.7299 82.9697 58.0001 83.0916L58.3011 83.0413C63.9288 82.0985 72.1402 80.7229 79.2985 86.1725C86.6662 91.7815 89.8322 103.262 90.6227 120.173C90.2916 114.149 87.7812 108.23 85.9274 103.859C85.6139 103.12 85.3189 102.425 85.0566 101.781C76.2836 103.089 70.511 100.782 67.123 96.6112C64.2951 93.1301 63.4671 88.7462 63.5359 85.2383ZM68.3223 86.0295C68.3853 88.5661 69.0809 91.4204 70.8346 93.5791C72.7158 95.8949 76.2064 97.8729 82.7902 97.2276C80.903 94.0945 78.6984 91.7429 76.4038 89.9961C73.8033 88.0163 71.0174 86.7591 68.3223 86.0295Z" fill="black"/>
<path d="M90.633 120.376C90.6299 120.309 90.6264 120.241 90.6227 120.173L90.633 120.376Z" fill="black"/>
<path d="M71.9629 138.459C71.9629 138.017 72.3201 137.659 72.7607 137.659H77.2288C77.6695 137.659 78.0267 138.017 78.0267 138.459V144.219H83.7714C84.212 144.219 84.5692 144.578 84.5692 145.019V149.5C84.5692 149.942 84.212 150.3 83.7714 150.3H78.0267V156.061C78.0267 156.503 77.6695 156.861 77.2288 156.861H72.7607C72.3201 156.861 71.9629 156.503 71.9629 156.061V150.3H66.2182C65.7775 150.3 65.4203 149.942 65.4203 149.5V145.019C65.4203 144.578 65.7775 144.219 66.2182 144.219H71.9629V138.459Z" fill="black"/>
<path fill-rule="evenodd" clip-rule="evenodd" d="M105 0C86.6511 0 64.7622 5.32124 45.1101 10.0987C31.4352 13.4231 18.8433 16.4842 9.28109 17.3058C2.82775 17.8603 -0.812957 18.1732 0.154468 18.2835C0.154468 18.2835 21.0638 161.021 28.7558 181.63C34.0893 195.92 52.4221 206.966 69.836 217.458C86.297 227.376 101.937 236.799 105 248V0ZM104.995 60.7076C101.247 60.7076 96.2429 58.3046 90.1105 55.3597C83.0656 51.9767 74.5316 47.8786 64.7023 45.887C46.064 42.1105 43.2129 54.288 44.1172 60.8489C46.2981 71.6769 50.8353 96.6454 51.5374 109.895C52.2046 122.486 61.9553 128.415 67.4649 130.072C61.3668 132.806 57.1225 138.9 57.1225 145.98C57.1225 155.613 64.9813 163.422 74.6757 163.422C75.2473 163.422 75.8125 163.395 76.3701 163.342C81.2477 162.744 83.7839 161.058 86.6914 159.125C87.0085 158.915 87.33 158.701 87.6595 158.485C89.3808 157.359 91.3199 156.19 93.8613 155.325C95.8665 154.641 98.181 154.168 101.005 153.998V144.059C93.047 140.889 89.4621 133.214 87.4929 128.998L87.4895 128.991L87.3666 128.727C87.3105 128.608 87.2557 128.491 87.2022 128.377C87.5817 129.182 89.574 130.091 90.9241 130.707L90.9258 130.708L90.9277 130.709C91.2529 130.858 91.5409 130.989 91.7596 131.098C93.3046 130.918 94.5282 130.686 95.7488 130.454C98.0904 130.01 100.422 129.567 104.995 129.505V134.785C101.514 134.827 99.4613 135.091 96.3778 135.898C98.7266 137.793 101.61 139.432 104.995 140.294L104.995 158.729H103.399C99.8895 158.729 97.3771 159.197 95.4011 159.87C93.4221 160.544 91.8755 161.459 90.2756 162.506C89.9651 162.709 89.6529 162.917 89.3364 163.128L89.3335 163.13L89.332 163.131C86.6831 164.898 83.7297 166.869 78.8742 167.805C79.5356 175.381 86.5226 188.214 104.995 188.214L104.995 158.729L104.995 60.7076Z" fill="black"/>
</svg>
